/* XPM */
static char * graphic_xpm[] = {
"48 32 11 1",
" 	g None",
".	g #FFFFFF",
"+	g #C7C7C7",
"@	g #AAAAAA",
"#	g #E3E3E3",
"$	g #555555",
"%	g #000000",
"&	g #1D1D1D",
"*	g #393939",
"=	g #8E8E8E",
"-	g #727272",
"................................................",
"................................................",
"....+@@......+@@..#@@@@@@@@@@#..@@+......@@+....",
"....$%%......$%%..@%%%%%%%%%%@..%%$......%%$....",
"....$%%......$%%..@%%%%%%%%%%@..%%$......%%$....",
"....$%%......$%%..@%%@..........%%$......%%$....",
"....$%%......$%%..@%%@..........%%$......%%$....",
"....$%%......$%%..@%%@..........%%$......%%$....",
"....$%%$$$$$$&%%..@%%*$$$$$$=...%%&$$$$$$%%$....",
"....$%%%%%%%%%%%..@%%%%%%%%%$...%%%%%%%%%%%$....",
"....$%%$$$$$$&%%..@%%*$$$$$$=...%%&$$$$$$%%$....",
"....$%%......$%%..@%%@..........%%$......%%$....",
"....$%%......$%%..@%%@..........%%$......%%$....",
"....$%%......$%%..@%%@..........%%$......%%$....",
"....$%%......$%%..@%%-@@@@@@@+..%%$......%%$....",
"....$%%......$%%..@%%%%%%%%%%$..%%$......%%$....",
"....$%%......$%%..@%%%%%%%%%%$..%%$......%%$....",
"................................................",
"................................................",
"................................................",
"................................................",
"....................................+#..........",
"....................................$@..........",
"......#&&&@@&%+**$-=.=-$$*+#&%=.*$&#$@#&%@......",
"......-=.*@@*.+#@%+&.&+%-@+$=#-#++*@$@$$=&......",
"......$@.$@@$.@*=%.*=*.+-&-$@.+#*-*@$@$-@@......",
"......+&$%@@$.-$=%.=%=.*=--@&**+&@&@$@+&$*......",
"......+@+*@#+..@++##%...@+..+@..+@#++#.+@.......",
"......@%%*........@%=...........................",
"................................................",
"................................................",
"................................................"};
