/* XPM */
static char * logo_xpm[] = {
"318 41 33 1",
" 	c None",
".	c #020202",
"+	c #FEFEFE",
"@	c #ADABB1",
"#	c #77708A",
"$	c #544C71",
"%	c #2D1C47",
"&	c #3F365D",
"*	c #32244E",
"=	c #E6E6E9",
"-	c #0D0414",
";	c #A19CAD",
">	c #D5D3D9",
",	c #352A52",
"'	c #120E1B",
")	c #6E6685",
"!	c #938EA1",
"~	c #CAC8CE",
"{	c #565656",
"]	c #5F5877",
"^	c #291543",
"/	c #C2C0C8",
"(	c #8A849C",
"_	c #210436",
":	c #363156",
"<	c #4E466B",
"[	c #BDBAC6",
"}	c #817A93",
"|	c #3A3A3A",
"1	c #6C5B7E",
"2	c #463E63",
"3	c #250B3B",
"4	c #B9B6C3",
"_____________________________________3__3_3_33_333333333333333333333333333333333333^33^3^3^3^3^^3^^^^^^^^^^^^^^^^^^^^^^^^^^^^^^^^^^^^^%^%^%%%%%%%%%%%%%%%%%%%%%%%%%%%%%%%%%%%%%*%%*%*%*%************************************,*,*,,,,,,,,,,,,,,,,,,,,,,,:,:,:,::,::,:::::::::::::::::::::::::::::::::::::::::::::::::::::::::::",
"________________________________33_33_33_3_3__3__3__3_333333333333333333^33^3^^3^^33^^3^3^3^3^3^^3333^33^^3^^3^^^^^^^^^^^^^^^^^%%%%%%%^%^%^^^^^^%^%^%^%%%%%%%%%%%%%%%%%%*%*%*%*%**%*%*%*%%%%%%*%*%*%******************,,,,,,*,*,******,,,,,,,,,,,,,:,:,,,,,,,,,:,,:,,,,,:,::,:::::::::::::::::::::::::::::::::::::::::}4]:::::",
"__________]+++++@*___2~++=!3__3_1~++=!_3_3_33_331++@3_33_3<~++=!3333}=++~}3331++++=!,33^3^3^3^3@++)^1+++++@,^^3^^^^^^^^^^^%^%^^^^^^^^^^%^%%%%%%^%%%%%%%%%%%%%%%%%%%*%%*%*%*%*%%%%%%*%*%******%******************,*,*,******,*,*,,,,,,**,*,,,,,,,,,,,,,,:,:,:,:,:,,:::::,::,::,::::::::::::::::::::::::::::::::::::::&(=+/&::::",
"__________1++++++=*_2++++++!3__1++++++!___33_33_1++433_33*++++++@^3}++++++13^1++++++=3^3^3^3^3^4++1^)++++++=:^^^3^^^^^^^^^^^^^^^^^^^^^%^^^^^^^^%^%^%^^%^%^%%%%%%%%%%%%%%%%%%%%**%**%*%**%*%*%**%*%*%*%*%********************,*,*,,,,,,,*:*,,,,,,,,,,,:,,:,:,:,:,::,:,:,::,&,:::,::,::,::,::,::,::,::,::,::,::,::,::<4~(~4;&:::",
"_____333331++~{=++#3;++4#+++'^3~++}#++~'^^^^^^^^)++@.'^^^;++4{+++*^>++!!++@'%)++~{=++1^^%^%^%^%4++{.)++~{=++#%%%%%%%%%%%%%%%%%%*%%*%%%%*%%****%*%%%*%%*%*%%*******************%,%*********************,****,,,,*,,,*,,,,,,,,,,,*,*,*,,,,,,,,,,,,:,:,,:,,,,,,:,:,,:,:::,,:::,:,&:,&:,&:,&:,&:,&:,&:,&:,&:,&:,&:,&:,$~@2)/$>#:::",
"____^======++@.{++@^=++{.@++{]~+++..+++.1>>///>~=++@.2~>~=++{.@++{|+++.{++@.}~++@.#++!'/[[[[[[4=++{.;++@.{++@';4@@;;;@;;@@@@@;!;;;!;;!!;;;;;!!!;;!;;!;!((!!!!!!!(!(}((}}}((((}}#(#}#}}}}}###}##}#######)))))1))))1)))))]))]]]1]1]]]]]]]]]]]$]]$$$$$$$$$$$$$$<$<<<<<<2<<<222<22222222222&&2&&2&&2&&&&&&&&&&&&:&&:&#>;&:)~:)>:::",
"____^=44>!1++@.#++@.~++{./++{.3+++..+++.%;4^3%~;[++@.,;;;=++{.@++{.+++.{++@.*)++@.)++@.#!(;;((@4++{.!++@.)++@.2}}(%%21^^1}##(*%*)%%<$%%)##)#*^,}#)}#))}*%%})1)#)1#:%%1*%,#]])2*%]***)]]]$**2]]$)$]$)$$]2*,<:**<*,,$<<$$<<$,,,$<<<2*,&222<2222,:&2222:*:&,,:2&&2:,,&&&:::::::&:::::,::,:::::::::::::::::,::,:::,:2>#:::)/:&[$::",
"____3=@@>!1++@.}++@./++{.~++{._+++..+++..;4^33/;/++@.,;;;=++{.@++{.+++.{++@.%1++@.#++@.$((;;((@4++{.!++@.)++@.,}}}%3&1^^1}#}(%^%)%^2$^^)#)#}*%,}))}#)#}*%%})))#1)#:%%1*%%#]1)2%*$,%%1]]]$%*2]$]1]$$1$$]2**2:**<,*,]$<$$<<$,*,<<222,*&<22<2222:,:2222,:,&:,,&&&&::,&:&:&::::::::,:::,:&::::::,::,::::,:::,:&,::::(@::::#~&:[!::",
"____3=>>=[@++@.(++@./++{.>++{.{+++..+++../~(}}>/>++@.|[[/=++{.~++{.+++.{++@.|;++@.}++@.|@@@@@;4>++{.;++@.#++@.:;;;)1}(1)(;!!;11)!11}}11(!((!11)!((((}}(1]](}}}(}}(1]$#1]]}###)$])]$$#))))$$1)))))))))1)]<<]$<<]<<<]]]]]]]]<2<$]$$$22$$$$$$<<$22<<<<$2222222222222&2222&&&&&&&&&&&&&&&&&&&:&&&:&&::&&&:&&::&::::&4(:::1>=!&;;,:",
"____3((}(}@++@.#++@.;++(.~++{.]>>@.|+++.-(}}}}}}@++@.,}}}>++{./++{.+++.{++@.*@++@.#++@.,#######>++{.(++@.#++@.*))))#))))))))))))1)111)111)1111111111111111]]1]]]$]]1]1$]$]]$1$$1$]$]$]$]$$$$$$$$$$$$$$<<$$<$$$<$<$<<<<<2<<<<<<<<<<<<2<<22<22222222222222&222222&&2&&&&2&&&2&&&&&&&&&&&:&&&&:&&:&&:::&&:&:::&:::$>2::}>})>!]4&:",
"__________1++@.{++@.{++@.@++{.___..{++~.._3_33_31++@.-333@++{.@++{.+++.{++@.-1++@.{++@.-33333334++{.1++@.{++@.-^^^^^^^^^^^%^%^^%^%%%^%%^^%^%%%%%%%%%%%%^^%%%%%%%%%%^%%%*%%*%*%*%%*%*%%*%****%******%******************,***********,,**:,,,:,,,,,,*,,,,,:,,,,,,::,::::,:::,::::::::::,::,:,:::,::,:&](!!#2,:,::&)>:2;>]&:$>4=<:",
"__________1++@.{++@.%+++.@++{.-3_--]++@.-_3__33_1++@.-_33@++{.@++{.+++.{++@.-)++@.]++@.-^^^^^^^@++{.1++@.]++@._^^^^^^^^^^^^^%^^^%^^%^^^%%^%^^^^^^%%%^^%%%%%%%%%%%%%*%%%*%%%%%%*%*%%%%*%*%*%***%**%*****%*********,******,*,,,,,,,,*,,,*,,,*,,,,,*:,,,,,,,:,:,:,,,,,,,:,,,&,::,:::,:::::::&:,:&,&]};!)$$(;;]&,:,@(<4/$::::$/+]:",
"__________]++@.{++@.-=++|#@@|.-____@++(.-_333_331++@.-3334++{.@++{.+++.{++@.-1++@.{++@.-333333^4++{.]++@.{++@.-^^^^^^^^^^^^^^^^%^^%^%^^^%^%%%%%%%^^%%%%%%%%%%%%%%%%%%%%%*%%*%%*%*%**%*%*%*%*%*%*********%*************,*,*******,,*,,,*,,,*,,,,:*,,,,:,:,,,,,:::,:::,:::::,::,:::::,::,::,:::::&>!&::::$!/#::::>!>;<::::::</;:",
"__________1++@.]++@.-@++{._-.._3___@++{.-3__33__1++@.-3_3@++{.@++{.+++.{++@.-)++@.]++@.-^^^^^^3@++{.1++@.]++@._^^3^^^^^^^^^^^^^^%^^^^^%%^%^^^%^^%%%%%^%%%^%%%%%%%%%%%*%%%%%*%%%%*%%%*%*%***%***%*%*%**************,*,******,,,,,*,,***:*,,,,,,,*:*:,,,,,,:,:,,,,:,,::,:,,::,:::::,:&,:&,:&:,:::,@/]&:)!;]!]:::<==}&::,::::1~!:",
"__________]++@.{++@.-1++@._---__3_3+++|.-3_33_331++@.-3334++{.@++{.+++.{++@.-1++@.{++@.-33333^^4++{.1++@.{++@.-^^^^^^^^^^^^%^^^%^^%%%^^^^%%%^%%^%%^%%%^%%%^%%%%%%%*%%%%*%*%%%*%*%*%%*%*%%**%*%******%****%************,*,,*****,*,,,,*,*,,,,,,:*,,,,,,,,,:,:,::,:,,,:,:::,::,&,::::::,&:,::::,&:)!@};!1::!1:::&4=4(22:::&;>!&:",
"__________1++@.{++@.-%++=.-____3__*+++..__3_33__1++@.-3__@++{.@++{.11{.{++@.-)++@.]++@.-^^^^^33@++{.1++@.]++@._^^^^^^^^^^^^^^^^%^^^^^^^%%^^^%^^%^%%%^%%%%%%%%%%%%%%%%%%%%%*%%*%%*%**%*%***%*%*%*%*%************,****,**,***,,,,*,*,,,,,,,,,,,,*:,,,:,,,:,,,,,,,,,:::,::,:::,:,:::::,::::::::::::];]>$::::!]:::::&!;=>!})~[$:::",
"__________]++@.]++@.-_=++^-_____3_1++~..__3_33331++@.-333@++{.@++{.'3..!++@.-1++@.{++@.-3333^^^4++{.]++@.{++@.-^3^^^^^^^^^^%^^^^^%^%%%^^%%%^%%^%%^%%^%%%%%%^%%%%%%%%%%*%%%%%%%*%*%%*%*%%%*****%***+++*%)++)4++),*,**#++44++++*+++4**,*,4++#,,++,,#+[[++++,+:,::#+[,:[+#:+++:}+++#[++#::,::,:::,:2@<@$:::&;],:::::::<];//(&::::",
"__________1++@.{++@.-_@++{.____3_3#++@..__33_3__1++@.-333@++{.@++{._3-]+++@.-)++@.]++@.-^^^^333@++{.1++@.]++@._^^^^^^^^^^^^^%^^%^^^^^^^%^^^%^%%^%%^%%^%^%%^*%%%%%%%*%%%*%*%*%%*%%%*%*%****%%*%**%*+**4];#]****4*****#4*##*4#*,+##*,,*,,4;#;,+,,[#[,##:4#::+,:,#[,}#[#:[,+,:[#>#1&4}:/,:&,:&,:::::;$!):::#;2:::::::::::::::,:::",
"__________]++@.#++@.-_1++@._______4++{.-___3_33_1++@.-3334++{.@++{._3!++++@.-1++@.{++@.-333^^^^4++{.1++@.#++@.-^^^^^^^^^^^^^^^^^^%^%%^^^%%^%^^%^^%%%%%%%^*^^%%%%%%%%%%%%*^*%%%%*%%%%*%%%%**%**%**%+){#.]4;'.$]!.^,**#~)#|'@{..+4@..',,,[~@#.+,,@{[,){'4{..+,.:#[,){@@#~.+:.@{=4#.@;1!-%:::::,::::$;$!:&!;&:::,::::::::::::::,:",
"__________1+++++++#.-_*++=.-______+++^.-33_3_3_31++@.-3_3@++{.@++{.*>+~}++@.-)++@.]++@.-^^^3333@++{.1+++++++#._^^^^^^^^^^^^^^%^^^%^^%^%%^^%%%%^%%%^%^^%%%%%*%%%%%%%%%%%%%*%%*%%**%**%*****%**%****+4@*%'^)){;4]*'***#=4!2^4#'^+,.^^,**,[#'4^+,.4#@%]#^4#'^+:.,}4%)#4~@=:+:.4}@%-%4>@(:':::,:&:,:::#@!2(}&::,:&::::,:::::::::::",
"__________]++++++='.-__=++.-___3_*+++..__3_3_3331++@.-333@++{.@++{.!++<]++@.-1++@.{++@.-33^^^^^4++{.]++++++='.-3^^^^^^^^^^^%^^^%^^^%^%^%^%^^%%^%^%%%*^%%%%%^%%%%%%*%%%%*%%%*%*%%*%%*%%%%%*%**%%***+*.^:))(|4;#)^',**#4'{)'4#'%+#{2',,,,[;]!'@#{(]!)}]%@#'%+#{]];)}]4#'@%+#{!#~#{*@}'@*'::&:,::::::&)=4}::::::,::::::,:::::::::",
"__________1++=@@!%..-__@++{.3____1++@.._3_3_3___1++@.-333@++{.@++{.+++.{++@.-)++@.]++@.-^^33333@++{.1++=@@!%..3^^3^^^^^^^^^^^^^^%^^^^%^^%^^%^^%^%%^^^%%%%%%%%%%%%%%%%%%%*%%%%%*%*%*%********%***%*4*.'|44(*}@4@'%***]!%|<'({'^44@(,,,*:([4$:'[@,:<@}:%(]'%[4@!:]4}:($'}'@[@:]@44]!]'}'%,::,&::,:::::)1&::::,:&#(12::::,::,::::",
"____-_____]++@......___1++!._3_3_@++#.._3_3_33331++@.-_334++{.@++{.+++.{++@.-1++@.]++@.-3^^^^^^4++{.1++@......3^^^^^^^^^^^^^%^^%^^%^%^%^%%^%%^%%^%%%%^%%%%%%%%%%%%%*%%%*%%*%*%%%*%*%%%%%%%**%%***%*%.***%^^'%''%',****%',%','%,,.%'%:*,,,''%':'%%','%'*:'%,,.%%*%'%%*'%:':.%*'*'%*,'%:'::::,::::,:&:::::,::::24(@;;#]&:::::,::",
"__________1++@..---____*++~._____~++{.-3_3_3_3__1++@.-3_3@++{.@++{.+++.{++@.-)++@.{++@.-^333333@++{.1++@..---^^^^^^^^^^^^^^^^^^^%^^^^^%%^^%^%%^^%%%^%%^%%%%%%%%%%%%%%%%%%%*%%%**%%%********%**%%****'***%''',''''*****%',%%,'%*,''''*,,,:'''%,,'',:*'',:'*::'''%:*'':'*:^:''':*''','*:%,&::::,:::::::,::::::,#!&:&<)@[!&::::::",
"__________]++@.-________=++.-____+++..-__3_3_3331++@.-333@++{.@++{.+++.{++@.-1++@.]++@.-^^^^^^^4++{.]++@.-^^^^3^^^^^^^^^^^^^^^^%^^%^%^^%%^%%%%%%^^*^%%%%^%%%%%%%%%%*%%*%%%%*%%%%%*%%%%%%%**%****%**%*******,,,**,**,,**,,,,,,,*,,,:,*,,*,,,,,,,,,,,:::,::,,:,:,,::::::::,::::::::::|::::,::&:::,::::&:,:::,&:;$::::::14&,:::::",
"__________1++@.-____#@@2@++|-__31++~.._33_3_33__1++@.-333@++{.@++{.+++.{++@.-)++@.{++@.-3333333@++{.1++@.-^^3^^^^^^^^^^^^^^%^^^%^^^^%^^%^%^^^%%^%%%%%^%%%%%%%%%%%%%%%%%*%*%%%*%**%%*******%**%%**%****%***,%*%*,%,**********,*,*,,*,,**,,,,,,,,,,,,,,,,,,:,,,,::,,,:::,,::::::::::::::::::,::,:&,:::,:&,&:::1;:,::,::;=$::,:::",
"__________]++@.-____@++1#++#.___}++@..__3_3__3331++@.-3334++{.@++{.+++.{++@.-1++@.]++@.-^^^^^^^4++{.1++@.-^^^^^^3^^^^^%^^^^^^^^^^%^%^^%^%^%%^%%%^^%%^%%%%^%%%%%%%%%%%%%%%%%*%*%%%*%%%%%%%*%***%****%*****%,**,***,**,,******,*,**,*,,,,,,,,,,,,,,,,,,:,,,,:,:,,,:,::,:::,::,:::::::::::,:::&::,&:,::::::,:::;)::::::&//$::::,&",
"____3~~~~~>++@.2~~~~=++(}++@.;~~=++{.*~//=++++>[>++@.2[[[=++{.>++{.+++.{++@.|~++@.}++@.|+++++@@=++{.;++@.&@;;@;;;;;;;;;;;;;;;;;;;!;!;!!!!!!!!!!!!!!!!((!((((((((((}(}(}}}}}}}}}}}}}}}#}######)##)))#)))))))))]))])])]])])]]]]]]]]]]]]{]$]{${${${${$$$<$$$<<$<<<<<<<2<2<2<<222222222222222&&&&&2&&2&&&&&&&&&<@2&&:&::]/!]::::::",
"____3;%^1~~++@.|4%%&=++{%+++.]@>+++^.-}<%4++++[%)++@.|,%%>++{.~++{.+++.{++@.*)++@.#++@.|+++++%}>++{.)++@.,!}};***(*%<!}}!&%%#*^*!##(}##!,*%())#1*%$2%*))))})1##11}&**1,*,#1])2**]]$]],*:)$]]&**$:**]{$]2,*<$$$]$<$<,,&$<<{::,<:,:&,,&222<2222:::2|22:::&&&&|&&|:::&&&:&:,::::::::::::,:::&:&::::::::::,::,:]/],::,::##():::,::",
"____3;3_$~~++@.&4^_,=++{.+++{|;>+++.._#&_3;|....]++@.2*3_=++{.~++{.+++.{++@.%)++@.#++@.|!(.....>++{.]++@.:!}};%^3}%3&!#}!&^^#*^^!##(}##(*^%})##1%^$&%%))))})))#)1#,%%1*%*#]])2%%]]]]1**,)]$)&**$***)$$$2**<$$$]<$$<,,:$<<$,*,2**:2,*&<<2<2222,,:2222:,,2&2&2&&&:,,:&::::::::::::::,:::::,:,::,::,::,:::::::&>;!12::,(1@$,:::::",
"_____;3_$~>++@.|43_*+++{.~++{.@=++@.._}&33;|....1++@.2*33>++{.~++{.+++.{++@.%)++@.#++@.|((.....>++{.1++@.:((};^^^}^^&!}#!,^^#%^%!##}}##!*%^())#1^%$2^%)1))})))#)1#&%%1*%*#1])2*%]]]]]*%,1]$):%*$**%]]$]2**<$$<]$<<2,*&$<<$,*,<,*,&:,&22<<2222,,:2222:,,&&&&2&&&::::&&&::::::::::::::,::::::::::::::::,::::::@#)@;1&:4$;<::::::",
"____3====>=++@.<=>~/+++{.>++{.(=++!.->>>>>>~//>~=++@.<~~>=++{.>++{.+++.{++@.|~++@.(++@.|/[[[44/=++{.@++@.|44@44@@4@;;@;;@@@;@;@;;;;;;;!;;;;;;!!;;!;!(!!!!(!!!!(((!((}((((((((}(}}}}}}}}}}}}}###}#######)))))))))))))))))])])]]])]]]]]]]]]]]]]$]${$$$$$$$$$$<$$<<<<<<<2<22<2<22222222222&22&2&&&&&&&&&&&&&&&&#;&&$;4(@<;&::::::",
"____3>@@~)1++@.|4^3,>++{.>++{.3=++{.|;~@;;4%^%~;/++@.,;;;=++{.@++{.+++.{++@.*)++@.#++@.|(!;;((@4++{.!++@.%(}};}}}}^^21%%1}#}!}}##%%<$%%)#))#*%,(1#}&*%)*%*})))$*%$&%*)11))]1))]]),%*)]]]1$$)&**$]$]]$$]2*,<:,,<,*,$<<$:,,<<<<$2<<2*,&<222,*,<22222222&22:::&&&&:,:::::&&:::::::::::::,&:,::::&::&::::::,::,:&;(2::$@#$(::,::,:",
"____3>@4~1]++@-|4^_*>++{.=++|.-+++^.<@/@@;[^_3/;/++~{#/;;=++{.~++{.+++^{++@.*1++@.@++#.|((!;((@4++{.!++@.^!(};}}}(%3&1^^1}#}!##}#^^2<^%1###}%^,}))}&%%1*%^}))#$%%$&%%)]]1#1]))]1)*%*1]]])]]1&%*$$]$)$$]2**2:%*<,*,{$<$&**2<<<$<2<&,,&<22<:,,2222222222&&,,:2&&&::,&:,:::&::::::,::,:::::::::,::,:::,&::::::::&(;}&:};;#,&:::::",
"____3=~~>;!++@.2~11#>++=/++=..2+++@@>==/[4/)11~4~++++++~4>++=@+++..=++/~++@.:!++=@+++|.|@;@;;;@~++{.;++@.*;!;@!!!;1$1}1$}!!!;(!(($$))$$}(}}($$1!}}(1$<}$<<(##})<<)$<<}###}#)###)#$2<))))))])$22)]]]))]]$22$<22$222]]{]<22$$$$]$$$<2&<$$<<&2&$<<<<<<<22<2:&&2222&&&&&&&2&&&&&:&&&:&&&&&:&&:&:&:&:&&:&,&,:::::::&$(@)$[/<:,:::::",
"____3;;;;;[++@-&;;;;;++++++#..;+++++++>;!;;!;!;![++++++;1}++++++)..!+++@++@.,4++++++/..<(((((((>++{.!++@.,}}}((}}}}(}#}}}}#}}#}}#}}}##}###}########))#)#))))))))))1)1)1)1)1)11])1]1]]]]]]]1]1]1]]]]]]]]]$]]$]$]$$]$$$$$$$$$$$$$$$<<$<<<<<<<<<<<<2222<<2<<2222222222&222222&2&&&&&&&&&&&&&&&&&&&&&&&&:&&&:&:&:&::&$([==::&,::::",
"__________2@@#.-______#@@!|...2@@@@@@@#-___333__<@@@@@@|.-_#@@!|...3<@!.@@#..<@@@@!|...3^3^^3^^(@@|.24@#.-^^333^^3^3^^^^^^^^^^^^^^^^^^^^%^^^^^^^^%^%%^%%%%%%%%%%%%%%%*%%%%%%*%%**%*********%*%****%*%**********,********,,,,*,,*,,,,,,,,:*,:,,:,:,:,,:,,:::::,::,:::,:,,::::::&:::,::,::,:::,:,,,:,::,:,::,:::::::&$!#,::::,::",
"____________-.--_______......__3-.......-_33__33_3-......333......'33'...-..-33'......-^3^33^333^-..'3'.._^^%^^^^^^^^^^^^^^^^^^%^^^^%^^%^%^%^%%^%%^%%^%%%%%%%%%%%%%%%%%*%*%*%%*%%*%%%%%%%*%*%*%*******************,***,*****,**,*,*,,,,,*,,,,,,,,,,,,,,:,,,,,:,,:,,,:,:,:,:,:,:,::::,&,:&,:::::::::::::&,:&:::::::::&:::,:::::",
"_____________---________----___3_--------__333_333_------3333----_3333_--3--'333-----33^3^^3^^^3^---^33--33^3^3^^^^^^^^^^^^^^^^^%^%^^%^^%^%^%^%%^%%^%%%%%%%%%%%%%%%%*%%%%%%%*%%%%*******%*****%*%*%*************,**,**,***,*,,*,*,**,,,,,,*,,,,,,,,,,,,,:,,,,::,::,::,:,::::::::&,::::::::,&,:::::,:::,&:,:,::,:::::,::&:,::::",
"________________________________________3_3_3_3__33____3_333333333333333333333^33333^3^3^33^333^3^^^^^^^^^^^^^^^^^^^^^^^^^%^^^^^^%^%^^%^%^%^%^%^%^*^%^%%%^%%%%%%%%%%%%%*%*%%%%***%%%%%%%*%%%*%*******%*%***************,,,*,**,*,,,,**,,,*,,,,,,,,,:,,,:,,::,,,,,,:,,:,::,:,:,:,:&,&:,::,:::::,&,&:&,:::::::,:&:::,:&,:,:&,:::",
"_____________________________________3_33_3_33333_3333333_33333333333333^33^333^3^33^3^3^^3^^^^^333^3^3^3^^^3^^^3^^3^^^^^^^^%%^^^^^%^%^^%^^%^%%%^%^%%%%^%%%^%%%%%%%%*%%%%*%%%%%%%%*****%***%*%*%*%*%****************,******,,*,**,,,,*,,,,,,,,,,,,,,:*,,:,,:,:::,,::,::,:::,&,::::,:::&::::,&:,:,:,::::,:::&:,:,::::::::::::,&"};
